<svg xmlns="http://www.w3.org/2000/svg" viewBox="0 0 1035.93 982.48"><defs><style>.cls-1{fill:#f5881f;}.cls-1,.cls-13,.cls-14,.cls-15,.cls-16,.cls-17,.cls-18,.cls-19,.cls-2,.cls-20,.cls-21,.cls-22,.cls-23,.cls-24,.cls-25,.cls-26,.cls-28,.cls-29,.cls-31,.cls-32,.cls-4{fill-rule:evenodd;}.cls-2{fill:#d8641d;}.cls-28,.cls-3{fill:#231f20;}.cls-4{fill:#48c7f4;}.cls-5{fill:#7d1676;}.cls-6{fill:#009541;}.cls-7{fill:#0066a2;}.cls-8{fill:#c60077;}.cls-9{fill:#bf151b;}.cls-10{fill:#deab0e;}.cls-11{fill:#da681d;}.cls-12{fill:#96268e;}.cls-13{fill:#47b549;}.cls-14{fill:#0086cd;}.cls-15{fill:#eb008b;}.cls-16,.cls-27{fill:#ec1c24;}.cls-17{fill:#ffd600;}.cls-18{fill:#9cdbf8;}.cls-19{fill:#0089bd;}.cls-20{fill:#bbe5fa;}.cls-21{fill:#93d8f7;}.cls-22{fill:#308aa9;}.cls-23{fill:#006580;}.cls-24{fill:#73c5a0;}.cls-25{fill:#a2d5af;}.cls-26{fill:#2ca791;}.cls-29,.cls-30{fill:#fff;}.cls-31{fill:#193d4b;}.cls-32,.cls-33{fill:#e6f5fc;}</style></defs><g id="Laag_2" data-name="Laag 2"><g id="Layer_1" data-name="Layer 1"><path class="cls-1" d="M234.53,830.65c0,78.38,126.21,141.92,281.91,141.92S798.36,909,798.36,830.65Z"/><path class="cls-2" d="M516.44,972.57c20.09,0,71.52-5.44,90.42-7.45-195.57-3.37-301.18-94.36-323.6-134.47H234.53C234.53,909,360.74,972.57,516.44,972.57Z"/><path class="cls-3" d="M516.44,982.48c-76.82,0-149.19-15.14-203.8-42.63-56.76-28.57-88-67.36-88-109.2a9.91,9.91,0,0,1,19.81,0c0,34,27.39,66.47,77.12,91.51,51.89,26.12,121.1,40.51,194.89,40.51s143-14.39,194.89-40.51c49.74-25,77.12-57.54,77.12-91.51a9.91,9.91,0,0,1,19.81,0c0,41.84-31.26,80.63-88,109.2C665.64,967.34,593.26,982.48,516.44,982.48Z"/><path class="cls-4" d="M517.58,504.25C238,504.25,69.52,619.34,11.41,715.32,51.68,789.73,215.78,911,517.58,911h.77c301.8,0,465.9-121.22,506.17-195.63-58.11-96-226.62-211.07-506.17-211.07"/><ellipse class="cls-5" cx="532.44" cy="772.25" rx="47.45" ry="58.4"/><ellipse class="cls-6" cx="371.27" cy="759.35" rx="58.4" ry="47.45" transform="translate(-471.33 826.29) rotate(-68.49)"/><ellipse class="cls-7" cx="216.9" cy="715.32" rx="58.4" ry="39.03" transform="translate(-481.06 447.76) rotate(-52.16)"/><ellipse class="cls-8" cx="684.97" cy="759.35" rx="47.45" ry="58.4" transform="translate(-230.74 304.08) rotate(-21.51)"/><ellipse class="cls-9" cx="839.34" cy="712.6" rx="39.03" ry="58.4" transform="translate(-260.66 664.78) rotate(-37.84)"/><ellipse class="cls-10" cx="106.21" cy="639.25" rx="58.4" ry="32.03" transform="translate(-369.58 199.32) rotate(-37.81)"/><ellipse class="cls-11" cx="947.87" cy="642.03" rx="32.03" ry="58.4" transform="translate(-140.44 997.31) rotate(-52.19)"/><ellipse class="cls-12" cx="534.75" cy="759.41" rx="46.02" ry="44.36"/><path class="cls-13" d="M329.42,743.13a70.07,70.07,0,0,0-4.8,21.83c4.63,10.28,12.38,18.41,22.71,22.48,24.38,9.61,53.73-6.92,65.56-36.93a70,70,0,0,0,4.81-21.82c-4.64-10.28-12.39-18.41-22.71-22.49C370.6,696.59,341.25,713.13,329.42,743.13Z"/><path class="cls-14" d="M246.44,711.56a78,78,0,0,0,15.42-33.17,27.05,27.05,0,0,0-6.83-8c-17-13.22-46.87-3.3-66.65,22.17A78.27,78.27,0,0,0,173,725.73a27.09,27.09,0,0,0,6.84,8C196.81,747,226.65,737,246.44,711.56Z"/><path class="cls-15" d="M701.82,788c18.35-7.23,28.64-27.21,27.58-49.44C716.51,711.5,689,697.1,665.86,706.2c-18.35,7.24-28.65,27.21-27.59,49.44C651.16,782.72,678.71,797.12,701.82,788Z"/><path class="cls-16" d="M859,736.12c14.27-11.09,15-34.92,3.16-57.34-18.81-17-42.07-22.2-56.34-11.11s-14.95,34.92-3.16,57.34C821.46,742,844.72,747.21,859,736.12Z"/><path class="cls-17" d="M88.88,615.13c-12.67,9.84-22,21.54-26.79,32.55.11.14.18.3.29.44,10.84,14,40.29,9.28,65.77-10.5,12.67-9.83,22-21.53,26.79-32.54-.11-.14-.18-.3-.29-.44C143.81,590.66,114.36,595.36,88.88,615.13Z"/><path class="cls-1" d="M969.51,617.69c-25.42-19.58-54.67-24.2-65.48-10.28-7.67,9.89-3.93,26.47,7.9,42.32,25.41,19.58,54.67,24.2,65.48,10.28C985.08,650.12,981.34,633.54,969.51,617.69Z"/><path class="cls-18" d="M834.6,564.69c-81.8-35.87-187.16-60.44-316.25-60.44h-.77c-116.71,0-214,20.1-292.05,50.45C66.72,618.1,284,722.33,503.11,713.85c220.65-8.53,243.94-21.58,321.28-64.91C899.44,606.89,838.29,567,834.6,564.69Z"/><path class="cls-19" d="M19,727.68C69.71,802.39,232,911,517.58,911h.77c301.8,0,465.9-121.22,506.17-195.63,0,0-153.66,133.09-462.67,143.44C413.13,863.74,222.23,844.14,19,727.68Z"/><path class="cls-20" d="M236,608.44V325S214,9.9,517.58,9.9,799.15,325,799.15,325V608.44s-12.92,70.12-281.66,70.12S236,608.44,236,608.44Z"/><path class="cls-21" d="M762.11,642c34-17,37-33.59,37-33.59V325S813.92,113,651.64,36.79A97.5,97.5,0,0,0,665.39,52c104,96.07,96.72,257.31,96.72,257.31Z"/><path class="cls-22" d="M235.67,611.13c0,38.18,126.22,69.13,281.91,69.13s281.92-31,281.92-69.13c0,0-.23-69.12-281.92-69.12S235.67,611.13,235.67,611.13Z"/><path class="cls-23" d="M250.41,633.18c37.54,27.36,142.94,47.08,267.17,47.08s229.64-19.72,267.18-47.08c-24.67-20.27-90.65-47.41-267.18-47.41S275.08,612.91,250.41,633.18Z"/><path class="cls-3" d="M799.5,621a9.9,9.9,0,0,1-9.9-9.9c0-2.13-2.11-21.38-75-39.26-52.5-12.87-122.45-20-197-20s-144.5,7.09-197,20c-72.93,17.88-75,37.13-75,39.26a9.91,9.91,0,0,1-19.81,0c0-24.15,30.32-43.84,90.12-58.5,54-13.24,125.63-20.53,201.71-20.53s147.7,7.29,201.7,20.53c59.8,14.66,90.11,34.35,90.11,58.5A9.9,9.9,0,0,1,799.5,621Z"/><path class="cls-3" d="M1028.27,723.3c-15.56,12.44-31.71,22.78-48.45,32.67-8.33,4.94-16.82,9.59-25.4,14.06-4.31,2.2-8.58,4.47-12.92,6.61l-13.11,6.21a553.9,553.9,0,0,1-53.72,21.8A426.21,426.21,0,0,1,818.81,820a2.41,2.41,0,0,1-1.64-4.47l.08,0c8.47-4.66,17.13-8.63,25.63-13s17.08-8.38,25.5-12.8c17-8.36,33.74-17.24,50.47-26s33.11-18.15,49.47-27.5S1001,717,1016.55,707.34l.31-.19a9.9,9.9,0,0,1,11.41,16.15Z"/><path class="cls-3" d="M799.15,618.34a9.91,9.91,0,0,1-9.91-9.9l0-284.16c.09-1.39,8.63-140.73-74.42-229.68C668.51,45,602.14,19.81,517.59,19.81S366.66,45,320.32,94.6c-83,89-74.52,228.29-74.42,229.68l0,.69V608.44a9.9,9.9,0,1,1-19.8,0V325.3c-.64-9.92-8-150.17,79.63-244.11C356,27.32,427.26,0,517.59,0S679.18,27.32,729.42,81.19c87.6,93.93,80.27,234.17,79.63,244.11V608.44A9.9,9.9,0,0,1,799.15,618.34Z"/><path class="cls-3" d="M903.22,610.37A9.85,9.85,0,0,1,898,608.9c-70-43.23-192.68-94.75-379.68-94.75a9.91,9.91,0,1,1,0-19.81c191.65,0,317.91,53.13,390.09,97.7a9.9,9.9,0,0,1-5.22,18.33Z"/><path class="cls-3" d="M518.35,920.85h-.76c-134.44,0-257.33-24.5-355.4-70.86C87.17,814.53,27.55,766,2.7,720L0,715l2.94-4.85c11.35-18.76,26.22-37.39,44.17-55.37a9.9,9.9,0,0,1,14,14,283.91,283.91,0,0,0-38.19,46.74C68.71,792,234.39,901.05,517.59,901.05h.76c283.19,0,448.87-109.09,494.65-185.5a263.65,263.65,0,0,0-22.82-30.25,9.9,9.9,0,1,1,15-13A277.58,277.58,0,0,1,1033,710.19l2.93,4.85-2.7,5c-24.85,45.92-84.47,94.5-159.49,130C775.67,896.35,652.78,920.85,518.35,920.85Z"/><path class="cls-3" d="M143.49,603.89a9.9,9.9,0,0,1-5-18.45c71.14-41.56,194.66-91.1,379.11-91.1a9.91,9.91,0,0,1,0,19.81c-180,0-300.09,48.07-369.11,88.39A9.88,9.88,0,0,1,143.49,603.89Z"/><path class="cls-3" d="M17.55,707.55c5.74,4.4,12.31,8.84,18.65,13.12,6.58,4.1,13,8.46,19.72,12.31s13.3,8,20.2,11.61l10.24,5.58L91.48,753l5.23,2.6L117.62,766l21.32,9.59c3.57,1.56,7.08,3.25,10.69,4.72l10.86,4.34,21.72,8.67a940.61,940.61,0,0,0,180.91,47l23.2,3.24,11.59,1.62c3.86.58,7.73,1.1,11.63,1.34l46.68,3.95c15.6.76,31.23,1,46.84,1.48l11.71.33c3.9.13,7.81-.08,11.71-.1,7.81-.07,15.61-.48,23.41-.85q23.4-1.23,46.81-1.92,23.43-.93,46.86-2.76c31.26-2.34,62.47-6.07,93.72-10.62a1.79,1.79,0,0,1,.79,3.47,760,760,0,0,1-92.58,22.32Q622,866,598.23,868.68A410.93,410.93,0,0,1,550.56,872c-31.87.54-63.7-.71-95.52-1.82l-47.61-4c-4-.26-7.92-.79-11.87-1.37l-11.83-1.65-23.67-3.31a960.86,960.86,0,0,1-184.81-48L153,803l-11.11-4.45c-3.69-1.5-7.3-3.23-10.95-4.83l-21.83-9.82L87.68,773.19l-5.36-2.67-5.26-2.87-10.54-5.73c-7.07-3.72-13.91-7.91-20.81-12s-13.61-8.5-20.42-12.74c-6.73-4.56-13.25-8.92-20-14.12a9.91,9.91,0,1,1,12.06-15.72Z"/><path class="cls-24" d="M478.56,533c-2.75,13.31-8.78,27.06-21.41,34.53-24.67,14.6-52.56,22.81-59.23,68.86a189,189,0,0,0-1.25,34.17s58.75,8,120.82,8c0,0,62.31,2.14,124.34-9.88a188.37,188.37,0,0,0-1.6-33.9c-2.56-17.35-8.65-36.88-22.77-45.54-28.24-17.34-53.09-21.13-59.18-57.59C558.28,531.65,521.78,556.62,478.56,533Z"/><path class="cls-25" d="M617.46,589.24c-28.24-17.34-53.09-21.13-59.18-57.59a68.83,68.83,0,0,1-14.79,7c.76,14.77,4.77,34.28,18.58,43.13,27.84,17.83,53.12,20.89,53.12,91.91,10.31-1.31,16-2.94,26.64-5a188.25,188.25,0,0,0-1.6-33.89C637.67,617.43,631.57,597.9,617.46,589.24Z"/><path class="cls-26" d="M478.56,533c-.26,1.24-2.59,9.46-3.08,10.82-3.47,9.5-9.13,18.27-18.33,23.71-24.67,14.6-52.56,22.81-59.23,68.86a189,189,0,0,0-1.25,34.17s10.71,1.46,27.79,3.14c-1.29-39.45-.07-70.44,36.11-86.86a57.22,57.22,0,0,0,28.38-28c15.2,3.62,54.17,9.51,61.42-22.88a83.8,83.8,0,0,1-50.53,5.25A78.71,78.71,0,0,1,478.56,533Z"/><path class="cls-3" d="M396.67,683.6a9.9,9.9,0,0,1-9.89-9.45c-1.11-24.41,1.54-47.59,7.11-62,10.4-27,30.34-37.82,47.94-47.41,3.44-1.88,6.89-3.76,10.28-5.76,19.62-11.6,19.72-47.16,18.1-59.88a9.91,9.91,0,0,1,19.65-2.54c.31,2.4,7.21,58.83-27.66,79.46-3.59,2.13-7.25,4.12-10.9,6.11-16.71,9.11-31.15,17-38.93,37.15-4.56,11.81-6.78,32.48-5.8,54a9.91,9.91,0,0,1-9.45,10.35Z"/><path class="cls-3" d="M641.84,681.74h-.46a9.9,9.9,0,0,1-9.44-10.34c1-21.56-1.27-42.13-5.86-53.68-7.56-19-21.45-26.39-37.54-34.94-4-2.13-8.14-4.32-12.24-6.75-34.87-20.63-28-77.06-27.66-79.46a9.9,9.9,0,0,1,19.64,2.56c-1.61,12.7-1.5,48.26,18.11,59.86,3.7,2.19,7.46,4.19,11.45,6.3,17.06,9.07,36.4,19.35,46.64,45.11,5.65,14.21,8.36,37.35,7.24,61.9A9.9,9.9,0,0,1,641.84,681.74Z"/><path class="cls-3" d="M456.41,633l6.31,43.19a8.34,8.34,0,0,1-16.51,2.41,9.26,9.26,0,0,1,0-2.41L452.52,633a2,2,0,0,1,3.89,0Z"/><path class="cls-3" d="M591.11,633l6.31,43a8.34,8.34,0,0,1-16.51,2.43,8.6,8.6,0,0,1,0-2.43l6.31-43a2,2,0,0,1,3.89,0Z"/><path class="cls-24" d="M371.27,364c7.46,27.94,17.64,60.18,29.08,81.46,32.5,60.45,74.77,97.83,117,97.83H517c42.27,0,84.55-37.38,117-97.83,11.45-21.28,21.63-53.52,29.09-81.46,0,0,42.72-35.6,41.15-89.12s-41.62-61.59-41.62-61.59S642.84,112.07,516.75,112.07,369,214,369,214s-44.37,13-39.07,74.23C334,334.68,371.27,364,371.27,364Z"/><path class="cls-25" d="M663.15,357.88s-13.31,32.44-59.23,46.48c15.42,1.41,26.16.45,35.89-2.1Z"/><path class="cls-25" d="M658.35,374.7l-28.24,18.42s-21.75,88.56-77.81,131.54c-8,6.17-11.88,11.1-12.58,15,34.43-10.64,67.68-44.68,94.34-94.28,10-18.55,19-45.43,26.08-70.52Z"/><path class="cls-25" d="M642.62,210.89l20.06,2.35S657.26,150.3,581,122.91l-.69,5.59S630.17,152.43,642.62,210.89Z"/><path class="cls-26" d="M516.93,120.09v-8h-.18c-109,0-139.93,76.15-146.31,96.81a132.81,132.81,0,0,1,21.64.58c1.54.18,27.91,3.44,52.74,17.53a108.25,108.25,0,0,0-30.94-28.85C435.8,125.32,516.93,120.09,516.93,120.09Z"/><path class="cls-26" d="M460.88,495.23c-35.35-38.31-44.78-83.56-44.78-83.56,30.3,4.61,48.37-2.56,48.37-2.56-56.69-1.55-93.2-45.16-93.2-45.16,7.45,27.94,17.64,60.18,29.08,81.46,32.36,60.2,74.43,97.52,116.53,97.82l1.49-9.22S496.24,533.54,460.88,495.23Z"/><path class="cls-3" d="M551.73,453.59a4.47,4.47,0,0,1,4.75,4.77c-1.4,11.43-7.91,39.29-38,39.48s-36.9-27.6-38.45-39a4.49,4.49,0,0,1,4.7-4.84Z"/><path class="cls-27" d="M540,473.84c-2.63,7.53-8.48,16.08-21.55,16.16s-19-8.4-21.74-15.89c0,0,13.57-6.23,21.64-.13C526,467.78,540,473.84,540,473.84Z"/><path class="cls-3" d="M412.65,399.69c-11.6-3.24-22.44-8.91-32.45-15.69a153.25,153.25,0,0,1-27.36-24c-8-9.25-15.4-19.29-20.83-30.58a112.27,112.27,0,0,1-11.12-36.13,100.3,100.3,0,0,1-.66-19.22A110,110,0,0,1,323,255.2a78.79,78.79,0,0,1,6.92-18.35,62.77,62.77,0,0,1,12.25-16c10-9.48,23.25-14.32,35.81-15.48A88.87,88.87,0,0,1,414.67,210a4.07,4.07,0,0,1-2.06,7.86l-.27-.05A87.78,87.78,0,0,0,396,216.45a75.58,75.58,0,0,0-16.08,1.7c-10.39,2.12-19.55,7.06-25.9,14.33s-10.05,16.8-12,27A98.51,98.51,0,0,0,340,275.14a80.5,80.5,0,0,0,.64,15.58A104.58,104.58,0,0,0,344,306.14a142.58,142.58,0,0,0,5.57,15A154.67,154.67,0,0,0,366,349.33a189,189,0,0,0,48.39,46.49l0,0a2.14,2.14,0,0,1-1.75,3.84Z"/><path class="cls-3" d="M665.39,219.35a9.91,9.91,0,0,1-9.41-6.81C636.21,152.44,589.54,122,517.29,122h-.17c-72.25,0-118.92,30.47-138.69,90.57a9.91,9.91,0,0,1-18.82-6.19c15.62-47.47,55.56-104,157.14-104.18h.91c101.58.13,141.52,56.71,157.14,104.18a9.91,9.91,0,0,1-9.41,13Z"/><path class="cls-3" d="M620.05,395.82a189,189,0,0,0,48.39-46.49,154.67,154.67,0,0,0,16.45-28.2,142.65,142.65,0,0,0,5.58-15,105.85,105.85,0,0,0,3.28-15.42,80.5,80.5,0,0,0,.64-15.58,98.51,98.51,0,0,0-1.92-15.68c-2-10.18-5.64-19.7-12-27s-15.51-12.21-25.9-14.33a75.58,75.58,0,0,0-16.08-1.7,87.78,87.78,0,0,0-16.38,1.33l-.27.05a4.07,4.07,0,0,1-2.06-7.86,88.9,88.9,0,0,1,36.72-4.65c12.55,1.16,25.84,6,35.8,15.48a62.54,62.54,0,0,1,12.25,16,78.79,78.79,0,0,1,6.92,18.35,110,110,0,0,1,2.75,18.85,100.3,100.3,0,0,1-.66,19.22A112,112,0,0,1,702.4,329.4C697,340.69,689.56,350.73,681.57,360a153.25,153.25,0,0,1-27.36,24c-10,6.78-20.85,12.45-32.45,15.69a2.14,2.14,0,0,1-1.75-3.84Z"/><path class="cls-3" d="M669.1,371.85a262.8,262.8,0,0,1-17.21,58.94,256.62,256.62,0,0,1-13.77,27.75c-2.44,4.53-5.27,8.88-7.89,13.32-2.85,4.33-5.6,8.71-8.63,12.94a257.06,257.06,0,0,1-19.55,24.49,182.4,182.4,0,0,1-23.48,21.54A127.83,127.83,0,0,1,550.14,547,89.8,89.8,0,0,1,517,553.73v-21h.37v21a89.71,89.71,0,0,1-33.07-6.81A127.71,127.71,0,0,1,456,530.62,181.7,181.7,0,0,1,432.64,509a254.88,254.88,0,0,1-19.43-24.52c-3-4.22-5.74-8.61-8.57-12.94-2.6-4.45-5.41-8.79-7.83-13.33a260.19,260.19,0,0,1-13.66-27.73A267.59,267.59,0,0,1,366,371.68a5.5,5.5,0,0,1,10.56-2.86v0c7,18.57,14.3,36.82,22.78,54.37,4.18,8.83,8.78,17.28,13.73,25.71,2.37,4.26,5.1,8.28,7.63,12.43,2.73,4,5.37,8.08,8.24,11.95a235.35,235.35,0,0,0,18.3,22.2,176.15,176.15,0,0,0,21,18.83c14.89,10.95,32,18.54,49.18,18.41v21H517v-21c17.19,0,34.22-7.62,49-18.61a178.29,178.29,0,0,0,20.87-18.89A235.64,235.64,0,0,0,605.08,473c2.86-3.88,5.47-8,8.19-12,2.5-4.15,5.21-8.17,7.56-12.43,4.91-8.44,9.48-16.88,13.62-25.7,8.43-17.54,15.69-35.75,22.74-54.27v0a6.19,6.19,0,0,1,11.9,3.21Z"/><path class="cls-28" d="M474.66,279.25c22.49,38.58,18.34,86.22,14.7,105.45-25.87,1.05-66.76-.63-101.58-36.81-35.24-36.6-38.7-86.49-14.7-105.45S449.17,235.52,474.66,279.25Z"/><path class="cls-28" d="M474.66,279.25c22.49,38.58,18.34,86.22,14.7,105.45-25.87,1.05-66.76-.63-101.58-36.81-35.24-36.6-38.7-86.49-14.7-105.45S449.17,235.52,474.66,279.25Z"/><path class="cls-28" d="M559.07,279.25c-22.49,38.58-18.33,86.22-14.7,105.45,25.88,1.05,66.77-.63,101.59-36.81,35.23-36.6,38.69-86.49,14.7-105.45S584.56,235.52,559.07,279.25Z"/><path class="cls-29" d="M449.19,275.31c-2.65,4.58-14.06,2.94-25.49-3.66S405.14,256,407.79,251.4s14.06-2.94,25.49,3.66S451.83,270.73,449.19,275.31Z"/><path class="cls-29" d="M447.6,295.76c-1.1,3-5.55,4-9.94,2.41s-7.05-5.35-6-8.31,5.54-4,9.93-2.41S448.7,292.8,447.6,295.76Z"/><ellipse class="cls-30" cx="647.25" cy="257.85" rx="9.58" ry="20.25" transform="translate(21.8 564.82) rotate(-47.86)"/><ellipse class="cls-30" cx="654.81" cy="288.25" rx="5.72" ry="8.47" transform="translate(77.78 711.2) rotate(-60)"/><path class="cls-31" d="M365,281.73s9.67,88,106.51,95.3C471.47,377,394.39,359.75,365,281.73Z"/><path class="cls-31" d="M668.45,281.73s-9.68,88-106.52,95.3C561.93,377,639,359.75,668.45,281.73Z"/><path class="cls-28" d="M512.52,430.52c1,0,1.43-1.5.69-2.29-2.9-3.12-8.84-8.2-14.94-5.47s-2.41,5.87,5.33,7.17A48.69,48.69,0,0,0,512.52,430.52Z"/><path class="cls-28" d="M524.23,430.52c-1,0-1.43-1.5-.7-2.29,2.9-3.12,8.85-8.2,15-5.47s2.41,5.87-5.33,7.17A48.75,48.75,0,0,1,524.23,430.52Z"/><path class="cls-32" d="M294.16,164.62c23.66-42,84.62-129.8,222.75-129.8,35.49,0,37.7,29.65.67,31.54C405.73,72.1,347,122.91,309.34,175,292.39,198.44,284.07,182.51,294.16,164.62Z"/><ellipse class="cls-33" cx="593.6" cy="59.37" rx="14.92" ry="26.89" transform="translate(406.25 625.75) rotate(-77.41)"/><path class="cls-3" d="M517.59,690.16c-76.08,0-147.71-7.29-201.71-20.53-59.8-14.66-90.12-34.35-90.12-58.5a9.91,9.91,0,0,1,19.81,0c0,2.13,2.1,21.38,75,39.26,52.49,12.87,122.45,20,197,20s144.48-7.09,197-20c72.92-17.88,75-37.13,75-39.26a9.9,9.9,0,0,1,19.8,0c0,24.15-30.31,43.84-90.11,58.5C665.29,682.87,593.66,690.16,517.59,690.16Z"/><path class="cls-3" d="M532.44,838.9c-30.71,0-55.7-29.9-55.7-66.65s25-66.65,55.7-66.65,55.71,29.9,55.71,66.65S563.16,838.9,532.44,838.9Zm0-116.8c-21.61,0-39.2,22.5-39.2,50.15s17.59,50.15,39.2,50.15,39.2-22.5,39.2-50.15S554.06,722.1,532.44,722.1Z"/><path class="cls-3" d="M364.23,824.64a47.41,47.41,0,0,1-17.41-3.28C332.68,815.78,322.1,803.92,317,788c-4.87-15.35-4-32.76,2.4-49s17.67-29.59,31.7-37.49c14.59-8.22,30.42-9.66,44.57-4.09s24.72,17.44,29.78,33.4c4.87,15.35,4,32.76-2.4,49C412.28,807.21,388.11,824.64,364.23,824.64Zm13.93-114.11a38.68,38.68,0,0,0-18.92,5.28c-10.74,6.05-19.42,16.4-24.44,29.16s-5.75,26.25-2,38c3.53,11.14,10.67,19.32,20.11,23,20.08,7.92,44.71-6.55,54.86-32.28,5-12.75,5.74-26.25,2-38-3.53-11.13-10.67-19.31-20.11-23A31.26,31.26,0,0,0,378.16,710.53Z"/><path class="cls-3" d="M199.39,775.63A37.44,37.44,0,0,1,176,768c-20.94-16.26-19.38-52.12,3.55-81.64s57.28-39.88,78.22-23.63,19.38,52.13-3.54,81.65C238.64,764.41,217.74,775.63,199.39,775.63Zm35.14-104c-13.23,0-29.84,9.27-41.94,24.85-16.67,21.46-19.63,48.24-6.46,58.48s38.39.75,55.07-20.72,19.63-48.25,6.46-58.48A21,21,0,0,0,234.53,671.59Z"/><path class="cls-3" d="M692,824.64c-23.9,0-48.06-17.43-58.87-44.87-6.41-16.27-7.27-33.68-2.4-49,5.06-16,15.63-27.83,29.78-33.4s30-4.13,44.57,4.09c14,7.91,25.29,21.22,31.7,37.49s7.27,33.68,2.4,49c-5.06,16-15.63,27.83-29.78,33.41A47.4,47.4,0,0,1,692,824.64ZM678.07,710.53a31.26,31.26,0,0,0-11.49,2.16c-9.44,3.72-16.58,11.9-20.11,23-3.72,11.75-3,25.25,2,38,10.14,25.73,34.76,40.2,54.85,32.28,9.44-3.72,16.58-11.9,20.11-23,3.72-11.74,3-25.24-2-38s-13.7-23.11-24.44-29.16A38.68,38.68,0,0,0,678.07,710.53Z"/><path class="cls-3" d="M857,772.85A53.12,53.12,0,0,1,840.27,770c-14.12-4.7-27.72-14.77-38.28-28.36-22.92-29.52-24.48-65.38-3.55-81.65,10.48-8.14,24.67-9.82,40-4.73,14.12,4.69,27.72,14.77,38.28,28.36s17,29.26,18,44.1c1.14,16.07-4,29.4-14.48,37.54A37.07,37.07,0,0,1,857,772.85Zm-35.32-104A21,21,0,0,0,808.57,673c-13.17,10.23-10.22,37,6.46,58.48,8.58,11,19.39,19.15,30.45,22.83,9.88,3.29,18.63,2.54,24.62-2.11s8.87-12.94,8.13-23.34c-.83-11.62-6-24.1-14.59-35.14s-19.39-19.15-30.45-22.83A36.54,36.54,0,0,0,821.71,668.87Z"/><path class="cls-29" d="M124.18,621.93c-7.27,2.57-14.1,2-15.26-1.29s3.79-8,11.07-10.6,14.1-2,15.26,1.3S131.46,619.37,124.18,621.93Z"/><path class="cls-29" d="M100.53,628.23c-3.06,1.54-6.25,1.38-7.12-.36s.91-4.38,4-5.91,6.24-1.38,7.11.35S103.58,626.7,100.53,628.23Z"/><ellipse class="cls-30" cx="222.74" cy="686.42" rx="13.97" ry="6.3" transform="translate(-326.32 218.1) rotate(-31.56)"/><path class="cls-29" d="M204.23,702.92c-2.67,2.14-5.81,2.66-7,1.14s0-4.47,2.63-6.62,5.81-2.65,7-1.14S206.9,700.78,204.23,702.92Z"/><path class="cls-29" d="M367.23,732.77c-5.66,5.25-12.16,7.44-14.53,4.88s.29-8.87,5.95-14.12,12.15-7.43,14.52-4.88S372.88,727.52,367.23,732.77Z"/><path class="cls-29" d="M348,748c-2.19,2.62-5.18,3.74-6.67,2.5s-.91-4.38,1.28-7,5.18-3.74,6.67-2.5S350.22,745.33,348,748Z"/><path class="cls-29" d="M667.27,737.49c-2.79,7.2-7.68,12-10.92,10.75s-3.63-8.11-.84-15.3,7.67-12,10.92-10.75S670.05,730.3,667.27,737.49Z"/><path class="cls-29" d="M658.36,760.14c.2,3.41-1.2,6.27-3.14,6.39s-3.67-2.56-3.87-6,1.2-6.28,3.14-6.39S658.16,756.72,658.36,760.14Z"/><path class="cls-29" d="M819.68,696.44c1.33,7.6-.37,14.24-3.8,14.84s-7.29-5.07-8.62-12.67.37-14.24,3.8-14.84S818.35,688.84,819.68,696.44Z"/><path class="cls-29" d="M823.75,720.43c1.94,2.82,2.21,6,.62,7.09s-4.47-.29-6.41-3.11-2.21-6-.61-7.1S821.81,717.61,823.75,720.43Z"/><ellipse class="cls-30" cx="515.96" cy="744.18" rx="16.27" ry="7.34" transform="translate(-385.91 662.66) rotate(-50.1)"/><path class="cls-29" d="M507.18,771c-.42,4-2.58,7-4.83,6.75s-3.73-3.64-3.31-7.61,2.58-7,4.83-6.74S507.6,767,507.18,771Z"/><path class="cls-3" d="M974.33,694.13a57.33,57.33,0,0,1-9-.75c-13.77-2.19-28.73-9.13-42.14-19.53h0c-13.4-10.4-23.83-23.17-29.38-36-6.26-14.43-5.76-27.48,1.42-36.72s19.69-13,35.21-10.5c13.78,2.19,28.74,9.13,42.14,19.53s23.84,23.17,29.39,36c6.26,14.43,5.75,27.48-1.43,36.72C994.8,690.26,985.68,694.13,974.33,694.13Zm-52.85-87.7c-6.09,0-10.77,1.68-13.23,4.85-3.27,4.21-3,11.52.68,20,4.4,10.14,13.28,20.89,24.36,29.49h0c11.08,8.6,23.7,14.53,34.62,16.27,9.18,1.48,16.31-.1,19.57-4.31s3-11.52-.68-20c-4.39-10.14-13.27-20.89-24.35-29.49S938.74,608.71,927.83,607A40.42,40.42,0,0,0,921.48,606.43Z"/><path class="cls-3" d="M79.75,691.36c-11.35,0-20.47-3.87-26.2-11.25-13.84-17.85-1.56-49.77,28-72.69,13.4-10.39,28.36-17.33,42.13-19.53,15.53-2.48,28,1.25,35.22,10.5s7.68,22.29,1.42,36.72c-5.55,12.8-16,25.57-29.39,36s-28.36,17.33-42.13,19.53A57.43,57.43,0,0,1,79.75,691.36Zm52.85-87.7a40.26,40.26,0,0,0-6.35.53c-10.92,1.74-23.53,7.67-34.62,16.28-23.34,18.11-31.93,40.64-25,49.52,3.27,4.21,10.39,5.78,19.58,4.32,10.92-1.74,23.53-7.67,34.61-16.27h0c11.08-8.59,20-19.34,24.36-29.48,3.7-8.53,3.94-15.83.68-20C143.36,605.33,138.69,603.66,132.6,603.66Z"/><path class="cls-29" d="M925.88,624.7c3.69,6.77,4.2,13.61,1.14,15.28s-8.53-2.48-12.21-9.25-4.21-13.61-1.15-15.28S922.19,617.93,925.88,624.7Z"/><path class="cls-29" d="M937.4,646.13c2.74,2,4,5,2.85,6.53s-4.32,1.14-7.06-.91-4-5-2.85-6.53S934.66,644.08,937.4,646.13Z"/></g></g></svg>